<svg width="auto" height="100%" viewBox="0 0 8.542 8.542" xml:space="preserve" xmlns="http://www.w3.org/2000/svg"><path style="fill:currentColor" d="M65.604 81.777c-.366-.118-.624-.351-.8-.722-.137-.29-.184-6.246-.052-6.638.13-.383.4-.669.778-.821.315-.127 6.556-.106 6.878.024.38.152.66.467.76.856.044.174.05.584.042 3.313-.013 4.455.428 4.03-4.191 4.04-3.02.006-3.246.003-3.415-.052m4.186-1.681c1.827-.564 1.749-3.327-.096-3.403-.628-.026-.71.025-.517.323.14.217.201.27.522.454.53.303.677.72.43 1.214-.253.507-.56.625-1.637.627-.914.002-.953.01-1.234.269-.144.132-.309.418-.309.536 0 .089 2.549.07 2.841-.02m-.552-1.327c.109-.035-.018-.365-.212-.553-.129-.125-.17-.145-.524-.248-.784-.228-.982-1.06-.383-1.608.286-.262.446-.297 1.33-.297 1.05 0 1.43-.183 1.552-.747.03-.139-2.22-.17-2.725-.038-1.818.475-1.874 3.115-.074 3.487.187.038.918.041 1.036.004" transform="translate(-64.674 -73.51)"/></svg>